<svg xmlns="http://www.w3.org/2000/svg" version="1.1" xmlns:xlink="http://www.w3.org/1999/xlink" xmlns:svgjs="http://svgjs.dev/svgjs" width="1000" height="623" viewBox="0 0 1000 623"><g transform="matrix(1,0,0,1,-0.6060606060606233,0.2522267206477409)"><svg viewBox="0 0 396 247" data-background-color="#ffffff" preserveAspectRatio="xMidYMid meet" height="623" width="1000" xmlns="http://www.w3.org/2000/svg" xmlns:xlink="http://www.w3.org/1999/xlink"><g id="tight-bounds" transform="matrix(1,0,0,1,0.2400000000000091,-0.09999999999999432)"><svg viewBox="0 0 395.52 247.2" height="247.2" width="395.52"><g><svg></svg></g><g><svg viewBox="0 0 395.52 247.2" height="247.2" width="395.52"><g transform="matrix(1,0,0,1,75.54432,75.48096886941072)"><svg viewBox="0 0 244.43135999999998 96.23806226117856" height="96.23806226117856" width="244.43135999999998"><g><svg viewBox="0 0 244.43135999999998 96.23806226117856" height="96.23806226117856" width="244.43135999999998"><g><svg viewBox="0 0 244.43135999999998 96.23806226117856" height="96.23806226117856" width="244.43135999999998"><g><svg viewBox="0 0 244.43135999999998 96.23806226117856" height="96.23806226117856" width="244.43135999999998"><g id="textblocktransform"><svg viewBox="0 0 244.43135999999998 96.23806226117856" height="96.23806226117856" width="244.43135999999998" id="textblock"><g><svg viewBox="0 0 244.43135999999998 96.23806226117856" height="96.23806226117856" width="244.43135999999998"><g transform="matrix(1,0,0,1,0,0)"><svg width="244.43135999999998" viewBox="3.9700000286102295 -31.3799991607666 80.85521697998047 31.839998245239258" height="96.23806226117856" data-palette-color="#1c4b82"><path d="M3.97-1.72L3.97-28.79Q3.97-29.89 4.71-30.57L4.71-30.57Q5.4-31.26 6.21-31.38L6.21-31.38Q7.82-31.38 8.74-30.11L8.74-30.11 25.4-5 25.4-29.54Q25.4-30.46 25.75-30.8L25.75-30.8Q26.38-31.38 26.98-31.38 27.59-31.38 27.93-31.26 28.28-31.15 28.51-30.92L28.51-30.92Q29.14-30.46 29.08-29.54L29.08-29.54 29.08-2.59Q29.08-0.86 27.41-0.17L27.41-0.17Q27.01 0 26.38 0L26.38 0Q25 0 23.97-1.26L23.97-1.26 7.7-26.03 7.7-1.72Q7.7-0.92 7.24-0.57L7.24-0.57Q6.55 0 5.8 0 5.06 0 4.51-0.43 3.97-0.86 3.97-1.72L3.97-1.72ZM46.72-13.28L46.72-13.28Q47.93-13.28 49.14-13.22L49.14-13.22 49.14-15.06Q49.14-19.54 44.14-19.54L44.14-19.54Q41.89-19.54 40.86-19.14L40.86-19.14Q39.02-18.45 38.22-17.96 37.41-17.47 36.95-17.47 36.49-17.47 36.09-17.82 35.69-18.16 35.69-18.74L35.69-18.74Q35.69-19.2 36.2-19.66L36.2-19.66Q38.91-22.24 44.19-22.24L44.19-22.24Q50.28-22.24 52.01-18.16L52.01-18.16Q52.58-16.72 52.58-14.83L52.58-14.83 52.47-1.55Q52.47-0.8 51.95-0.4 51.43 0 50.8 0 50.17 0 49.65-0.34 49.14-0.69 49.14-1.49L49.14-1.49 49.14-3.56Q47.76-0.57 44.19 0.17L44.19 0.17Q43.1 0.46 41.72 0.46 40.34 0.46 38.99 0.06 37.64-0.34 36.61-1.21L36.61-1.21Q34.48-2.99 34.48-6.03L34.48-6.03Q34.48-13.28 46.72-13.28ZM49.14-8.74L49.14-10.69Q48.22-10.57 47.01-10.57 45.8-10.57 44.54-10.55 43.27-10.52 42.12-10.26 40.97-10 40.05-9.48L40.05-9.48Q38.1-8.45 37.99-6.09L37.99-6.09Q37.99-4.25 39.48-3.22L39.48-3.22Q40.63-2.3 42.76-2.24L42.76-2.24Q45.34-2.24 47.24-3.91L47.24-3.91Q48.96-5.52 49.14-8.74L49.14-8.74ZM59.71-1.72L59.71-28.79Q59.71-29.89 60.45-30.57L60.45-30.57Q61.14-31.26 61.95-31.38L61.95-31.38Q63.56-31.38 64.48-30.11L64.48-30.11 81.14-5 81.14-29.54Q81.14-30.46 81.49-30.8L81.49-30.8Q82.12-31.38 82.72-31.38 83.33-31.38 83.67-31.26 84.02-31.15 84.25-30.92L84.25-30.92Q84.88-30.46 84.82-29.54L84.82-29.54 84.82-2.59Q84.82-0.86 83.16-0.17L83.16-0.17Q82.75 0 82.12 0L82.12 0Q80.74 0 79.71-1.26L79.71-1.26 63.44-26.03 63.44-1.72Q63.44-0.92 62.98-0.57L62.98-0.57Q62.29 0 61.55 0 60.8 0 60.25-0.43 59.71-0.86 59.71-1.72L59.71-1.72Z" opacity="1" transform="matrix(1,0,0,1,0,0)" fill="#1c4b82" class="undefined-text-0" data-fill-palette-color="primary" id="text-0"></path></svg></g></svg></g></svg></g></svg></g></svg></g></svg></g></svg></g><g><path d="M0 123.6c0-68.262 55.338-123.6 123.6-123.6 46.701 0 87.353 25.901 108.374 64.121l-4.981 0c-20.599-35.731-59.187-59.782-103.393-59.782-65.866 0-119.261 53.395-119.261 119.261 0 65.866 53.395 119.261 119.261 119.261 44.206 0 82.794-24.051 103.393-59.782l4.981 0c-21.021 38.22-61.673 64.121-108.374 64.121-68.262 0-123.6-55.338-123.6-123.6z" fill="#1c4b82" stroke="transparent" data-fill-palette-color="tertiary"></path></g></svg></g><defs></defs></svg><rect width="395.52" height="247.2" fill="none" stroke="none" visibility="hidden"></rect></g></svg></g></svg>